HIERARCHY
ROOT Hips
{
	OFFSET 0.000000 0.000000 0.000000
	CHANNELS 6 Xposition Yposition Zposition Xrotation Yrotation Zrotation
	JOINT LeftUpLeg_virtual
	{
		OFFSET 0.000000 0.000000 0.000000
		CHANNELS 3 Xrotation Yrotation Zrotation
		JOINT LeftUpLeg
		{
			OFFSET 13.026900 -6.336304 -1.092800
			CHANNELS 3 Xrotation Yrotation Zrotation
			JOINT LeftLeg
			{
				OFFSET 0.524474 -46.096886 9.782700
				CHANNELS 3 Xrotation Yrotation Zrotation
				JOINT LeftFoot
				{
					OFFSET -0.524474 -53.427422 -12.948200
					CHANNELS 3 Xrotation Yrotation Zrotation
					JOINT LeftToeBase
					{
						OFFSET 0.192200 -14.009700 16.364100
						CHANNELS 3 Xrotation Yrotation Zrotation
						JOINT LeftToe_End
						{
							OFFSET -1.784700 -0.561700 9.474800
							CHANNELS 3 Xrotation Yrotation Zrotation
							End Site
							{
								OFFSET 0 0 0
							}
						}
					}
				}
			}
		}
	}
	JOINT RightUpLeg_virtual
	{
		OFFSET 0.000000 0.000000 0.000000
		CHANNELS 3 Xrotation Yrotation Zrotation
		JOINT RightUpLeg
		{
			OFFSET -12.883000 -6.336304 -1.092800
			CHANNELS 3 Xrotation Yrotation Zrotation
			JOINT RightLeg
			{
				OFFSET -0.524587 -46.096825 9.782800
				CHANNELS 3 Xrotation Yrotation Zrotation
				JOINT RightFoot
				{
					OFFSET 0.524587 -53.427383 -12.948300
					CHANNELS 3 Xrotation Yrotation Zrotation
					JOINT RightToeBase
					{
						OFFSET -0.192200 -14.009700 16.364100
						CHANNELS 3 Xrotation Yrotation Zrotation
						JOINT RightToe_End
						{
							OFFSET 1.784700 -0.561700 9.474800
							CHANNELS 3 Xrotation Yrotation Zrotation
							End Site
							{
								OFFSET 0 0 0
							}
						}
					}
				}
			}
		}
	}
	JOINT Spine_virtual
	{
		OFFSET 0.000000 0.000000 0.000000
		CHANNELS 3 Xrotation Yrotation Zrotation
		JOINT Spine
		{
			OFFSET 0.072000 7.257294 -0.789700
			CHANNELS 3 Xrotation Yrotation Zrotation
			JOINT Spine1
			{
				OFFSET 0.000000 12.508769 -0.658067
				CHANNELS 3 Xrotation Yrotation Zrotation
				JOINT Spine1_split
				{
					OFFSET 0.000000 12.508769 -0.658067
					CHANNELS 3 Xrotation Yrotation Zrotation
					JOINT Spine2
					{
						OFFSET 0.000000 12.508769 -0.658067
						CHANNELS 3 Xrotation Yrotation Zrotation
						JOINT Neck_virtual
						{
							OFFSET 0.000000 0.000000 0.000000
							CHANNELS 3 Xrotation Yrotation Zrotation
							JOINT Neck
							{
								OFFSET 0.000000 14.033295 7.520400
								CHANNELS 3 Xrotation Yrotation Zrotation
								JOINT Head
								{
									OFFSET 0.000000 8.198502 5.703100
									CHANNELS 3 Xrotation Yrotation Zrotation
									JOINT HeadTop_End
									{
										OFFSET 0.000000 17.760803 13.332701
										CHANNELS 3 Xrotation Yrotation Zrotation
										End Site
										{
											OFFSET 0 0 0
										}
									}
								}
							}
						}
						JOINT LeftShoulder_virtual
						{
							OFFSET 0.000000 0.000000 0.000000
							CHANNELS 3 Xrotation Yrotation Zrotation
							JOINT LeftShoulder
							{
								OFFSET 6.292450 5.785301 -0.669000
								CHANNELS 3 Xrotation Yrotation Zrotation
								JOINT LeftShoulder_split
								{
									OFFSET 6.292450 5.785301 -0.669000
									CHANNELS 3 Xrotation Yrotation Zrotation
									JOINT LeftArm
									{
										OFFSET 13.907140 -6.093903 1.965100
										CHANNELS 3 Xrotation Yrotation Zrotation
										JOINT LeftForeArm
										{
											OFFSET 34.140198 0.000000 0.000000
											CHANNELS 3 Xrotation Yrotation Zrotation
											JOINT LeftHand
											{
												OFFSET 40.960209 0.000000 0.000000
												CHANNELS 3 Xrotation Yrotation Zrotation
												End Site
												{
													OFFSET 0 0 0
												}
											}
										}
									}
								}
							}
						}
						JOINT RightShoulder_virtual
						{
							OFFSET 0.000000 0.000000 0.000000
							CHANNELS 3 Xrotation Yrotation Zrotation
							JOINT RightShoulder
							{
								OFFSET -6.292450 5.785301 -0.669000
								CHANNELS 3 Xrotation Yrotation Zrotation
								JOINT RightShoulder_split
								{
									OFFSET -6.292450 5.785301 -0.669000
									CHANNELS 3 Xrotation Yrotation Zrotation
									JOINT RightArm
									{
										OFFSET -13.907140 -6.093903 1.965100
										CHANNELS 3 Xrotation Yrotation Zrotation
										JOINT RightForeArm
										{
											OFFSET -34.140198 0.000000 0.000000
											CHANNELS 3 Xrotation Yrotation Zrotation
											JOINT RightHand
											{
												OFFSET -40.960209 0.000000 0.000000
												CHANNELS 3 Xrotation Yrotation Zrotation
												End Site
												{
													OFFSET 0 0 0
												}
											}
										}
									}
								}
							}
						}
					}
				}
			}
		}
	}
}
MOTION
Frames: 7
Frame Time: 0.03333333
0.574471 92.100105 4.882961 0.000000 0.000000 0.000000 22.152308 -19.649464 7.596146 -70.928625 0.797458 21.544013 53.317802 0.971820 3.256046 2.718026 0.989579 -19.822956 -2.829750 -0.277237 -0.740693 0.000000 0.000000 0.000000 21.437585 -20.683652 7.998255 -66.103595 -5.085952 -21.473107 56.849611 -0.251980 -6.829383 -5.654953 -2.703574 17.764376 -4.873046 0.997539 0.247148 0.000000 0.000000 0.000000 24.401585 -21.954431 7.994777 16.040459 2.291067 -0.999477 10.218118 2.106577 -1.211659 1.074076 0.666568 0.740120 0.000000 0.000000 0.000000 10.279919 1.774096 -0.475115 -8.190950 5.162243 -8.951890 -40.765793 9.769412 8.553764 0.000000 0.000000 0.000000 10.260884 1.837918 -1.255378 3.660546 -6.293347 7.050078 -5.792611 -3.048586 -0.655198 -51.887328 4.599153 -60.937623 -1.593618 -84.049911 -0.219057 0.000000 0.000000 0.000000 11.502256 2.375770 -0.497353 2.837563 14.151933 4.701747 -1.041196 2.243756 1.025379 -40.996073 10.265308 45.869252 160.908206 88.430275 -161.391510 0.000000 0.000000 0.000000 
0.680831 92.323074 5.143883 0.000000 0.000000 0.000000 22.410378 -19.294432 7.828118 -70.675102 1.166964 21.164314 52.500044 0.614436 3.411361 2.546129 0.895838 -19.883903 -2.961843 -0.253832 -0.616054 0.000000 0.000000 0.000000 21.791620 -20.557596 8.310905 -65.839718 -5.110462 -21.238415 56.146006 0.154228 -7.290172 -5.748900 -2.982306 17.840621 -4.893615 1.046132 0.252628 0.000000 0.000000 0.000000 24.405987 -21.521475 8.120186 16.145208 2.325315 -0.972860 10.074585 2.161358 -1.282825 1.038757 0.238322 0.779449 0.000000 0.000000 0.000000 10.408617 1.809931 -0.542854 -7.786592 5.184245 -8.623236 -40.987538 10.600020 8.303556 0.000000 0.000000 0.000000 10.307098 1.875634 -1.213619 3.466202 -5.574777 6.148115 -5.883459 -3.068519 -0.800251 -50.386090 5.117074 -61.902558 -2.860177 -86.126718 -1.586336 0.000000 0.000000 0.000000 11.499125 2.307645 -0.585965 2.737377 13.949084 5.891088 -1.393306 2.625747 0.870120 -39.285298 10.685845 46.649963 174.790374 85.145377 -175.398616 0.000000 0.000000 0.000000 
0.671197 92.313103 5.346912 0.000000 0.000000 0.000000 22.648320 -19.145302 8.148451 -70.701610 1.473380 20.978605 52.225539 0.264832 3.542574 2.406279 0.785265 -20.021130 -3.064204 -0.246688 -0.466572 0.000000 0.000000 0.000000 22.262476 -20.560394 8.698941 -65.948898 -4.945270 -21.021012 55.855378 0.434984 -7.686157 -5.795044 -3.006995 17.879883 -4.919285 1.095786 0.254044 0.000000 0.000000 0.000000 24.459985 -21.240654 8.286082 16.256789 2.270280 -0.978908 10.038783 2.070036 -1.314051 0.967253 0.041711 0.730578 0.000000 0.000000 0.000000 10.607381 1.707084 -0.590020 -7.311789 5.183229 -8.327960 -41.225376 11.423129 7.978942 0.000000 0.000000 0.000000 10.493787 1.768590 -1.126753 3.332796 -5.093828 5.616354 -5.801177 -3.019116 -0.895011 -48.768712 5.621851 -62.407336 -5.443240 -88.631554 -4.204790 0.000000 0.000000 0.000000 11.570436 2.088870 -0.646478 2.729800 13.641130 6.539147 -1.694519 2.816903 0.771642 -38.253605 10.578735 47.909474 177.451388 81.332226 -178.166769 0.000000 0.000000 0.000000 
0.561312 92.132202 5.491650 0.000000 0.000000 0.000000 22.898247 -19.097414 8.493240 -70.925695 1.694246 20.965761 52.332793 0.005825 3.639106 2.258880 0.773620 -20.164265 -2.981790 -0.244427 -0.339572 0.000000 0.000000 0.000000 22.813964 -20.646890 9.102192 -66.261571 -4.738275 -20.811779 55.900464 0.549729 -7.975567 -5.889121 -2.855722 17.773610 -4.910696 1.146303 0.255420 0.000000 0.000000 0.000000 24.603059 -21.045833 8.438811 16.356691 2.140542 -0.981875 10.117264 1.892592 -1.304773 0.926552 0.011199 0.722091 0.000000 0.000000 0.000000 10.845954 1.516277 -0.617045 -6.878569 5.172048 -8.104201 -41.531279 12.218011 7.573826 0.000000 0.000000 0.000000 10.789961 1.568467 -1.015825 3.249762 -4.894695 5.137764 -5.514069 -2.879223 -0.883715 -47.147720 6.123894 -62.490678 -176.758438 -88.992638 -175.462915 0.000000 0.000000 0.000000 11.695250 1.788521 -0.679876 2.775658 13.313045 6.764510 -1.889796 2.892395 0.756841 -37.647972 9.810956 49.442855 178.378983 77.359774 -179.179836 0.000000 0.000000 0.000000 
0.362052 91.857819 5.541950 0.000000 0.000000 0.000000 23.165464 -19.130238 8.810959 -71.198158 1.788254 21.065350 52.583584 -0.113086 3.717780 2.118356 0.942121 -20.333127 -2.783371 -0.231057 -0.250497 0.000000 0.000000 0.000000 23.328750 -20.802929 9.453497 -66.705335 -4.571726 -20.609148 56.225298 0.490374 -8.148090 -6.037022 -2.618287 17.584715 -5.007189 1.189586 0.274568 0.000000 0.000000 0.000000 24.849335 -20.904375 8.583194 16.442355 1.960187 -0.948223 10.271103 1.683507 -1.258932 0.867954 0.041028 0.659245 0.000000 0.000000 0.000000 11.089920 1.297491 -0.636453 -6.540886 5.111522 -7.991835 -41.878786 13.014201 7.071677 0.000000 0.000000 0.000000 11.133237 1.340720 -0.919308 3.181049 -4.888609 4.414516 -5.237702 -2.628370 -0.729984 -45.635509 6.534766 -62.322430 -179.680735 -87.113168 -178.294739 0.000000 0.000000 0.000000 11.893864 1.499207 -0.697263 2.839901 13.002813 6.707920 -2.029181 3.005769 0.787178 -37.168192 8.715198 50.853398 178.727431 73.801874 -179.603526 0.000000 0.000000 0.000000 
0.085555 91.521034 5.497665 0.000000 0.000000 0.000000 23.436753 -19.179154 9.055521 -71.438383 1.706334 21.204882 52.848428 -0.124310 3.807823 2.009601 1.239712 -20.563760 -2.681702 -0.212501 -0.166043 0.000000 0.000000 0.000000 23.738647 -20.953058 9.707204 -67.193673 -4.435998 -20.408030 56.809159 0.296839 -8.226832 -6.242367 -2.339856 17.386375 -5.275592 1.221510 0.304664 0.000000 0.000000 0.000000 25.138947 -20.751940 8.710517 16.480442 1.779748 -0.851646 10.474022 1.513789 -1.187334 0.948700 0.166128 0.721961 0.000000 0.000000 0.000000 11.314982 1.117999 -0.645909 -6.300925 5.014018 -8.054388 -42.290452 13.819014 6.476691 0.000000 0.000000 0.000000 11.486420 1.142324 -0.840165 3.099914 -4.928124 3.400675 -4.910881 -2.361593 -0.454851 -44.391261 6.700471 -62.184262 -179.866284 -85.861325 -178.402588 0.000000 0.000000 0.000000 12.146834 1.289476 -0.703941 2.890312 12.745340 6.547104 -2.154339 3.028605 1.037915 -36.680226 7.860712 51.892598 178.846413 71.265162 -179.800003 0.000000 0.000000 0.000000 
-0.242785 91.107483 5.350063 0.000000 0.000000 0.000000 23.669174 -19.186298 9.183424 -71.677037 1.445315 21.343153 53.120912 -0.094279 3.910878 1.971611 1.573818 -20.892931 -2.744938 -0.198968 -0.066837 0.000000 0.000000 0.000000 24.043191 -21.074149 9.852548 -67.750818 -4.265317 -20.226555 57.628881 0.060886 -8.246961 -6.566828 -2.037574 17.251009 -5.624493 1.240222 0.332580 0.000000 0.000000 0.000000 25.428045 -20.564205 8.820352 16.444329 1.624687 -0.688409 10.697487 1.403169 -1.098140 0.915307 0.273121 0.804963 0.000000 0.000000 0.000000 11.547107 1.005966 -0.636729 -6.127296 4.883306 -8.272588 -42.700454 14.601662 5.772382 0.000000 0.000000 0.000000 11.831549 1.001489 -0.759657 2.984548 -4.876542 2.125331 -4.682913 -2.128570 -0.371318 -43.307624 6.670283 -62.181011 -179.543038 -85.174030 -178.069315 0.000000 0.000000 0.000000 12.396616 1.151479 -0.674188 2.909665 12.483082 6.418627 -2.159533 3.115826 1.388276 -36.081034 7.515948 52.487343 178.902544 69.836137 -179.953901 0.000000 0.000000 0.000000 
